<svg width="20.000000" height="11.749878" viewBox="0 0 20 11.7499" fill="none" xmlns="http://www.w3.org/2000/svg" xmlns:xlink="http://www.w3.org/1999/xlink">
	<desc>
			Created with Pixso.
	</desc>
	<defs/>
	<path id="Vector" d="M9.21948 11.4308L0.31958 2.53052C0.113525 2.32471 0 2.04993 0 1.75684C0 1.46387 0.113525 1.18909 0.31958 0.983276L0.974854 0.327759C1.40186 -0.0987549 2.0957 -0.0987549 2.52197 0.327759L9.99585 7.80151L17.478 0.319458C17.6838 0.113647 17.9585 0 18.2515 0C18.5447 0 18.8191 0.113647 19.0254 0.319458L19.6804 0.974976C19.8865 1.18091 20 1.45557 20 1.74866C20 2.04163 19.8865 2.31641 19.6804 2.52222L10.7722 11.4308C10.5657 11.6371 10.2896 11.7505 9.99634 11.7499C9.7019 11.7505 9.42603 11.6371 9.21948 11.4308Z" fill="#FFFFFF" fill-opacity="1.000000" fill-rule="nonzero"/>
</svg>
