<svg width="19.980957" height="12.119141" viewBox="0 0 19.981 12.1191" fill="none" xmlns="http://www.w3.org/2000/svg" xmlns:xlink="http://www.w3.org/1999/xlink">
	<desc>
			Created with Pixso.
	</desc>
	<defs/>
	<path id="Vector" d="M10.3257 0.284302L19.6252 8.76636C19.8403 8.96252 19.9663 9.23181 19.9797 9.52454C19.9934 9.81714 19.8926 10.0969 19.6963 10.312L19.0718 10.9968C18.6648 11.4425 17.9714 11.4744 17.5261 11.068L9.7168 3.94531L2.58643 11.7632C2.39014 11.9783 2.12085 12.1045 1.82837 12.1179C1.53564 12.1313 1.2561 12.0304 1.04053 11.8344L0.355957 11.2096C0.140869 11.0133 0.0148926 10.7441 0.0012207 10.4514C-0.012207 10.1588 0.088623 9.87903 0.284912 9.66394L8.77466 0.355591C8.97144 0.140015 9.24194 0.0141602 9.53491 0.00134277C9.8291 -0.0128174 10.1099 0.0876465 10.3257 0.284302Z" fill="#FFFFFF" fill-opacity="1.000000" fill-rule="nonzero"/>
</svg>
