<svg width="39.879150" height="40.000000" viewBox="0 0 39.8792 40" fill="none" xmlns="http://www.w3.org/2000/svg" xmlns:xlink="http://www.w3.org/1999/xlink">
	<desc>
			Created with Pixso.
	</desc>
	<defs>
		<clipPath id="clip27_8">
			<rect id="next 4" width="19.939575" height="20.000000" transform="matrix(-1 -1.87918e-16 -2.22607e-08 1 29.9094 10)" fill="white" fill-opacity="0"/>
		</clipPath>
	</defs>
	<ellipse id="Ellipse 1" cx="19.939575" cy="20.000000" rx="19.439577" ry="19.500000" stroke="#076BFF" stroke-opacity="1.000000" stroke-width="1.000000"/>
	<rect id="next 4" width="19.939575" height="20.000000" transform="matrix(-1 -1.87918e-16 -2.22607e-08 1 29.9094 10)" fill="#FFFFFF" fill-opacity="0"/>
	<g clip-path="url(#clip27_8)">
		<path id="Vector" d="M14.3688 19.4774L22.8302 10.1768C23.0259 9.96155 23.2946 9.83548 23.5864 9.82193C23.8783 9.80838 24.1573 9.90906 24.3718 10.1053L25.0547 10.7295C25.499 11.1362 25.5306 11.8293 25.1251 12.2749L18.0199 20.085L25.8152 27.2119C26.0297 27.4082 26.1555 27.6772 26.1688 27.9697C26.1821 28.2625 26.0814 28.5421 25.8857 28.7575L25.2626 29.4421C25.0668 29.6574 24.7983 29.7835 24.5065 29.797C24.2145 29.8105 23.9355 29.7099 23.7211 29.5137L14.4396 21.0282C14.2246 20.8313 14.0991 20.5609 14.0863 20.2679C14.0723 19.9739 14.1726 19.6932 14.3688 19.4774Z" fill="#595555" fill-opacity="1.000000" fill-rule="nonzero"/>
	</g>
</svg>
