<svg width="42.314453" height="18.525391" viewBox="0 0 42.3145 18.5254" fill="none" xmlns="http://www.w3.org/2000/svg" xmlns:xlink="http://www.w3.org/1999/xlink">
	<desc>
			Created with Pixso.
	</desc>
	<defs/>
	<path id="Logo" d="M0 14.3164L0 0L1.89453 0L1.89453 12.627L8.94531 12.627L8.94531 14.3164L0 14.3164ZM10.332 9.13086C10.332 7.21029 10.8659 5.78776 11.9336 4.86328C12.8255 4.09505 13.9128 3.71094 15.1953 3.71094C16.6211 3.71094 17.7865 4.17969 18.6914 5.11719C19.5964 6.04818 20.0488 7.33724 20.0488 8.98438C20.0488 10.319 19.847 11.3704 19.4434 12.1387C19.0462 12.9004 18.4635 13.4928 17.6953 13.916C16.9336 14.3392 16.1003 14.5508 15.1953 14.5508C13.7435 14.5508 12.5684 14.0853 11.6699 13.1543C10.778 12.2233 10.332 10.8822 10.332 9.13086ZM12.1387 9.13086C12.1387 10.459 12.4284 11.4551 13.0078 12.1191C13.5872 12.7767 14.3164 13.1055 15.1953 13.1055C16.0677 13.1055 16.7936 12.7734 17.373 12.1094C17.9525 11.4453 18.2422 10.4329 18.2422 9.07227C18.2422 7.78971 17.9492 6.81966 17.3633 6.16211C16.7839 5.49805 16.0612 5.16602 15.1953 5.16602C14.3164 5.16602 13.5872 5.49479 13.0078 6.15234C12.4284 6.8099 12.1387 7.80273 12.1387 9.13086ZM21.7969 15.1758L23.5059 15.4297C23.5775 15.957 23.776 16.3411 24.1016 16.582C24.5378 16.9076 25.1335 17.0703 25.8887 17.0703C26.7025 17.0703 27.3307 16.9076 27.7734 16.582C28.2161 16.2565 28.5156 15.8008 28.6719 15.2148C28.763 14.8568 28.8053 14.1048 28.7988 12.959C28.0306 13.8639 27.0736 14.3164 25.9277 14.3164C24.502 14.3164 23.3984 13.8021 22.6172 12.7734C21.8359 11.7448 21.4453 10.5111 21.4453 9.07227C21.4453 8.08268 21.6243 7.17122 21.9824 6.33789C22.3405 5.49805 22.8581 4.85026 23.5352 4.39453C24.2188 3.9388 25.0195 3.71094 25.9375 3.71094C27.1615 3.71094 28.1706 4.20573 28.9648 5.19531L28.9648 3.94531L30.5859 3.94531L30.5859 12.9102C30.5859 14.5247 30.4199 15.6673 30.0879 16.3379C29.7624 17.015 29.2415 17.5488 28.5254 17.9395C27.8158 18.3301 26.9401 18.5254 25.8984 18.5254C24.6615 18.5254 23.6621 18.2454 22.9004 17.6855C22.1387 17.1322 21.7708 16.2956 21.7969 15.1758ZM23.252 8.94531C23.252 10.306 23.5221 11.2988 24.0625 11.9238C24.6029 12.5488 25.2799 12.8613 26.0938 12.8613C26.901 12.8613 27.5781 12.5521 28.125 11.9336C28.6719 11.3086 28.9453 10.332 28.9453 9.00391C28.9453 7.73438 28.6621 6.77734 28.0957 6.13281C27.5358 5.48828 26.8587 5.16602 26.0645 5.16602C25.2832 5.16602 24.6191 5.48503 24.0723 6.12305C23.5254 6.75456 23.252 7.69531 23.252 8.94531ZM32.5977 9.13086C32.5977 7.21029 33.1315 5.78776 34.1992 4.86328C35.0911 4.09505 36.1784 3.71094 37.4609 3.71094C38.8867 3.71094 40.0521 4.17969 40.957 5.11719C41.862 6.04818 42.3145 7.33724 42.3145 8.98438C42.3145 10.319 42.1126 11.3704 41.709 12.1387C41.3118 12.9004 40.7292 13.4928 39.9609 13.916C39.1992 14.3392 38.3659 14.5508 37.4609 14.5508C36.0091 14.5508 34.834 14.0853 33.9355 13.1543C33.0436 12.2233 32.5977 10.8822 32.5977 9.13086ZM34.4043 9.13086C34.4043 10.459 34.694 11.4551 35.2734 12.1191C35.8529 12.7767 36.582 13.1055 37.4609 13.1055C38.3333 13.1055 39.0592 12.7734 39.6387 12.1094C40.2181 11.4453 40.5078 10.4329 40.5078 9.07227C40.5078 7.78971 40.2148 6.81966 39.6289 6.16211C39.0495 5.49805 38.3268 5.16602 37.4609 5.16602C36.582 5.16602 35.8529 5.49479 35.2734 6.15234C34.694 6.8099 34.4043 7.80273 34.4043 9.13086Z" fill="#000000" fill-opacity="1.000000" fill-rule="evenodd"/>
</svg>
