<svg width="39.879150" height="40.000000" viewBox="0 0 39.8792 40" fill="none" xmlns="http://www.w3.org/2000/svg" xmlns:xlink="http://www.w3.org/1999/xlink">
	<desc>
			Created with Pixso.
	</desc>
	<defs>
		<clipPath id="clip27_16">
			<rect id="next 4" width="19.939575" height="20.000000" transform="matrix(1 6.26393e-17 2.22607e-08 -1 9.96973 30)" fill="white" fill-opacity="0"/>
		</clipPath>
	</defs>
	<ellipse id="Ellipse 1" cx="19.939575" cy="20.000000" rx="19.439577" ry="19.500000" stroke="#076BFF" stroke-opacity="1.000000" stroke-width="1.000000"/>
	<rect id="next 4" width="19.939575" height="20.000000" transform="matrix(-1 -1.87918e-16 -2.22607e-08 1 29.9094 10)" fill="#FFFFFF" fill-opacity="0"/>
	<g clip-path="url(#clip27_16)">
		<path id="Vector" d="M25.5103 20.5226L17.0488 29.8232C16.853 30.0385 16.5845 30.1645 16.2925 30.1781C16.0007 30.1916 15.7217 30.0909 15.5073 29.8947L14.8245 29.2705C14.3799 28.8638 14.3484 28.1707 14.7539 27.7251L21.8591 19.915L14.0637 12.7881C13.8494 12.5918 13.7236 12.3228 13.7102 12.0303C13.6968 11.7375 13.7976 11.4579 13.9932 11.2425L14.6165 10.5579C14.8123 10.3426 15.0808 10.2165 15.3726 10.203C15.6646 10.1895 15.9434 10.2901 16.158 10.4863L25.4395 18.9718C25.6545 19.1687 25.78 19.4391 25.7927 19.7321C25.8066 20.0261 25.7063 20.3068 25.5103 20.5226Z" fill="#595555" fill-opacity="1.000000" fill-rule="nonzero"/>
	</g>
</svg>
